<?xml version="1.0" encoding="UTF-8"?>
<svg version="1.1" xmlns="http://www.w3.org/2000/svg" width="256" height="256">
<path d="M0 0 C84.48 0 168.96 0 256 0 C256 84.48 256 168.96 256 256 C171.52 256 87.04 256 0 256 C0 171.52 0 87.04 0 0 Z " fill="#09080C" transform="translate(0,0)"/>
<path d="M0 0 C1.44409996 -0.01441132 1.44409996 -0.01441132 2.91737366 -0.02911377 C4.48279152 -0.03548859 4.48279152 -0.03548859 6.07983398 -0.04199219 C7.70742897 -0.0505423 7.70742897 -0.0505423 9.36790466 -0.05926514 C11.67543564 -0.06872557 13.98298019 -0.07525325 16.29052734 -0.07910156 C19.76026514 -0.08868581 23.229379 -0.11964744 26.69897461 -0.15136719 C44.28198752 -0.23610917 60.13621501 0.59527993 76.26342773 8.16113281 C77.63254208 8.67703097 79.00713891 9.17877798 80.38842773 9.66113281 C84.37729506 11.11844342 88.10248643 13.02436034 91.86889648 14.97753906 C94.24510134 16.20247583 94.24510134 16.20247583 96.76342773 17.09472656 C99.56673639 18.29051291 101.67899712 19.78492842 104.07592773 21.66113281 C104.86612305 22.26957031 105.65631836 22.87800781 106.47045898 23.50488281 C107.06213867 24.05144531 107.65381836 24.59800781 108.26342773 25.16113281 C108.26342773 25.82113281 108.26342773 26.48113281 108.26342773 27.16113281 C109.58342773 27.16113281 110.90342773 27.16113281 112.26342773 27.16113281 C113.89624023 28.95410156 113.89624023 28.95410156 115.38842773 31.34863281 C115.88600586 32.1259375 116.38358398 32.90324219 116.89624023 33.70410156 C119.14685008 37.74876897 120.48238167 41.60503074 121.26342773 46.16113281 C121.92342773 46.16113281 122.58342773 46.16113281 123.26342773 46.16113281 C123.77181337 48.20072758 124.26976659 50.2429242 124.76342773 52.28613281 C125.18108398 53.9915625 125.18108398 53.9915625 125.60717773 55.73144531 C126.23066465 58.98990669 126.45964467 61.85487748 126.26342773 65.16113281 C124.36342374 67.06113681 121.00028313 66.29894255 118.48046875 66.30639648 C117.77152466 66.3097551 117.06258057 66.31311371 116.33215332 66.3165741 C113.97719596 66.32611098 111.62230948 66.32802857 109.26733398 66.32910156 C107.63687612 66.33231226 106.00641855 66.33567619 104.3759613 66.33918762 C100.95359631 66.34518576 97.5312566 66.34702682 94.10888672 66.34643555 C89.71583541 66.34633389 85.3229456 66.35998674 80.92993259 66.37720776 C77.56112417 66.38830705 74.19235504 66.3903554 70.8235302 66.38982582 C69.20355612 66.39100905 67.58358113 66.39544988 65.96362495 66.40315819 C63.70089419 66.41291648 61.43851728 66.41009674 59.17578125 66.40405273 C57.88640152 66.40547775 56.59702179 66.40690277 55.26856995 66.40837097 C52.26342773 66.16113281 52.26342773 66.16113281 50.26342773 64.16113281 C49.87593561 61.83618004 49.54584656 59.50117451 49.26342773 57.16113281 C49.05699575 54.9078487 49.05699575 54.9078487 48.26342773 53.16113281 C46.29669858 52.01104971 46.29669858 52.01104971 44.26342773 51.16113281 C43.93342773 50.50113281 43.60342773 49.84113281 43.26342773 49.16113281 C41.12756856 48.09576954 41.12756856 48.09576954 38.57592773 47.16113281 C37.72643555 46.83113281 36.87694336 46.50113281 36.00170898 46.16113281 C35.09807617 45.83113281 34.19444336 45.50113281 33.26342773 45.16113281 C32.35206055 44.79761719 31.44069336 44.43410156 30.50170898 44.05957031 C26.3245473 42.90064729 22.45534604 42.77752737 18.13842773 42.78613281 C17.30110107 42.78774414 16.46377441 42.78935547 15.60107422 42.79101562 C6.44803199 42.97071157 -1.21662868 44.45812385 -7.73657227 51.16113281 C-8.39657227 51.16113281 -9.05657227 51.16113281 -9.73657227 51.16113281 C-10.28490544 60.45848389 -10.28490544 60.45848389 -7.73657227 69.16113281 C-4.83280688 70.64221242 -1.91445757 71.47455265 1.26342773 72.16113281 C1.26342773 72.82113281 1.26342773 73.48113281 1.26342773 74.16113281 C2.23280273 74.24363281 3.20217773 74.32613281 4.20092773 74.41113281 C7.21525869 74.8213672 9.34736652 75.66141745 12.01342773 77.09863281 C18.35330851 80.15773612 25.4155487 80.19854031 32.32592773 80.76660156 C36.26342773 81.16113281 36.26342773 81.16113281 37.26342773 82.16113281 C39.59160737 82.52874012 41.92526623 82.86354862 44.26342773 83.16113281 C44.26342773 83.82113281 44.26342773 84.48113281 44.26342773 85.16113281 C45.54217773 85.26425781 46.82092773 85.36738281 48.13842773 85.47363281 C52.55740741 85.95847384 56.55330056 87.04809421 60.77514648 88.40722656 C63.19817809 89.1413633 65.59343549 89.67122141 68.07592773 90.16113281 C71.67637647 90.921437 74.12933186 92.20232289 77.26342773 94.16113281 C79.51413638 94.9730707 81.78623251 95.6880193 84.06811523 96.40722656 C86.26342773 97.16113281 86.26342773 97.16113281 89.32592773 98.72363281 C92.31546617 100.18659843 94.99251187 100.89935792 98.23608398 101.53613281 C103.09717009 103.03473354 106.89225408 106.35002641 110.76342773 109.53613281 C111.68124023 110.28636719 112.59905273 111.03660156 113.54467773 111.80957031 C117.90058757 115.57718198 121.52300822 119.05937198 124.26342773 124.16113281 C124.72104492 124.99386719 125.17866211 125.82660156 125.65014648 126.68457031 C130.58831349 137.50998146 129.74936516 148.494149 129.26342773 160.16113281 C128.60342773 160.16113281 127.94342773 160.16113281 127.26342773 160.16113281 C127.23764648 160.72960937 127.21186523 161.29808594 127.18530273 161.88378906 C126.7590854 167.68615685 125.4652099 171.30681792 122.26342773 176.16113281 C121.60342773 176.16113281 120.94342773 176.16113281 120.26342773 176.16113281 C120.03655273 176.86238281 119.80967773 177.56363281 119.57592773 178.28613281 C117.92501486 181.90241816 115.97254423 184.24883258 113.26342773 187.16113281 C112.60342773 187.16113281 111.94342773 187.16113281 111.26342773 187.16113281 C110.93342773 188.15113281 110.60342773 189.14113281 110.26342773 190.16113281 C108.59676107 190.82779948 106.9300944 191.49446615 105.26342773 192.16113281 C104.93342773 193.15113281 104.60342773 194.14113281 104.26342773 195.16113281 C102.08374023 196.25878906 102.08374023 196.25878906 99.38842773 197.22363281 C96.30406282 198.34317634 94.01949145 199.323757 91.26342773 201.16113281 C90.27342773 201.16113281 89.28342773 201.16113281 88.26342773 201.16113281 C88.26342773 201.82113281 88.26342773 202.48113281 88.26342773 203.16113281 C82.32884413 205.39235223 76.34005326 207.35237137 70.26342773 209.16113281 C69.41119629 209.41685059 68.55896484 209.67256836 67.6809082 209.93603516 C43.65663062 216.72110625 17.95892702 214.63291095 -6.73657227 214.16113281 C-6.73657227 213.50113281 -6.73657227 212.84113281 -6.73657227 212.16113281 C-7.72657227 212.18433594 -8.71657227 212.20753906 -9.73657227 212.23144531 C-23.36299446 212.45562082 -23.36299446 212.45562082 -29.73657227 210.16113281 C-30.06657227 209.50113281 -30.39657227 208.84113281 -30.73657227 208.16113281 C-32.71240941 207.42593759 -34.71834824 206.77040799 -36.73657227 206.16113281 C-37.68532227 205.83113281 -38.63407227 205.50113281 -39.61157227 205.16113281 C-42.79802212 204.07897997 -42.79802212 204.07897997 -46.42407227 203.41113281 C-54.17960004 201.5133447 -61.05471307 197.64370709 -65.73657227 191.16113281 C-67.39730076 190.4798083 -69.06433926 189.81371155 -70.73657227 189.16113281 C-73.43764703 186.78161457 -75.45658021 184.63151946 -77.29907227 181.53613281 C-78.56551194 179.06435039 -78.56551194 179.06435039 -80.79907227 177.78613281 C-84.62093125 174.58070269 -84.87699834 168.8887894 -85.73657227 164.16113281 C-86.72657227 164.16113281 -87.71657227 164.16113281 -88.73657227 164.16113281 C-88.95783404 161.70333305 -89.16407622 159.24585634 -89.36157227 156.78613281 C-89.45825195 155.738125 -89.45825195 155.738125 -89.55688477 154.66894531 C-89.69776966 152.83744171 -89.72418886 150.99800534 -89.73657227 149.16113281 C-87.73657227 147.16113281 -87.73657227 147.16113281 -84.68673706 146.92062378 C-83.37657623 146.925065 -82.06641541 146.92950623 -80.71655273 146.93408203 C-79.99449646 146.93378998 -79.27244019 146.93349792 -78.52850342 146.93319702 C-76.13680085 146.93459273 -73.74540806 146.95016498 -71.35375977 146.96582031 C-69.69752167 146.96954959 -68.04128137 146.97239697 -66.38504028 146.97439575 C-62.02184986 146.98203892 -57.6587922 147.00169321 -53.2956543 147.02380371 C-48.84498897 147.04424746 -44.39430224 147.05339431 -39.94360352 147.06347656 C-31.20786545 147.08493852 -22.47223536 147.11908263 -13.73657227 147.16113281 C-12.06207996 151.01401166 -10.50864729 154.72819905 -9.42407227 158.78613281 C-7.92918209 163.50387763 -5.66598514 165.27956337 -1.73657227 168.16113281 C-1.73657227 168.82113281 -1.73657227 169.48113281 -1.73657227 170.16113281 C-0.09688477 170.13019531 -0.09688477 170.13019531 1.57592773 170.09863281 C5.26342773 170.16113281 5.26342773 170.16113281 8.26342773 171.16113281 C10.32841666 171.24429033 12.39600663 171.2684916 14.46264648 171.25878906 C15.67114258 171.25556641 16.87963867 171.25234375 18.12475586 171.24902344 C19.38739258 171.24064453 20.6500293 171.23226562 21.95092773 171.22363281 C23.22516602 171.21912109 24.4994043 171.21460938 25.81225586 171.20996094 C28.96269337 171.19816155 32.11303722 171.18169878 35.26342773 171.16113281 C35.26342773 170.50113281 35.26342773 169.84113281 35.26342773 169.16113281 C36.50092773 168.91363281 37.73842773 168.66613281 39.01342773 168.41113281 C42.80687893 167.4527167 44.87091203 166.38182702 47.26342773 163.16113281 C49.59871523 158.95761533 49.73868018 154.85662694 49.26342773 150.16113281 C48.29717579 146.98630499 47.60877808 145.50648316 45.26342773 143.16113281 C43.50045636 142.37679525 43.50045636 142.37679525 41.51342773 141.72363281 C38.94734923 140.80981349 36.69377649 139.86443946 34.26342773 138.59863281 C30.62989463 136.85756487 27.19091025 136.04143062 23.26342773 135.16113281 C23.26342773 134.50113281 23.26342773 133.84113281 23.26342773 133.16113281 C21.61342773 133.16113281 19.96342773 133.16113281 18.26342773 133.16113281 C18.26342773 132.50113281 18.26342773 131.84113281 18.26342773 131.16113281 C16.36077148 130.99097656 16.36077148 130.99097656 14.41967773 130.81738281 C8.16033434 130.12190021 2.17121243 128.52920024 -3.92016602 126.97753906 C-8.226945 125.90874956 -12.41091028 125.0149182 -16.83032227 124.56738281 C-20.73657227 124.16113281 -20.73657227 124.16113281 -21.73657227 123.16113281 C-22.78844727 123.03738281 -23.84032227 122.91363281 -24.92407227 122.78613281 C-28.73657227 122.16113281 -28.73657227 122.16113281 -31.36157227 120.78613281 C-35.68664519 118.70369029 -40.00977204 117.97414125 -44.71313477 117.10253906 C-48.1184236 116.04223595 -49.35585799 114.73855865 -51.73657227 112.16113281 C-53.633253 111.21450944 -53.633253 111.21450944 -55.61157227 110.66113281 C-62.75313886 108.15763161 -66.96498489 104.03547087 -71.70922852 98.28222656 C-73.67821202 96.033611 -73.67821202 96.033611 -76.43188477 94.55175781 C-78.73657227 93.16113281 -78.73657227 93.16113281 -79.54907227 90.47363281 C-79.61094727 89.71050781 -79.67282227 88.94738281 -79.73657227 88.16113281 C-80.39657227 88.16113281 -81.05657227 88.16113281 -81.73657227 88.16113281 C-87.02050458 77.59326819 -87.39607038 65.77136702 -86.73657227 54.16113281 C-86.24157227 53.66613281 -86.24157227 53.66613281 -85.73657227 53.16113281 C-85.36896495 50.83295318 -85.03415646 48.49929431 -84.73657227 46.16113281 C-83.25157227 45.66613281 -83.25157227 45.66613281 -81.73657227 45.16113281 C-81.39165777 43.83074833 -81.06140644 42.4965622 -80.73657227 41.16113281 C-79.45467638 39.12778072 -78.11500419 37.13032128 -76.73657227 35.16113281 C-75.90125977 33.79988281 -75.90125977 33.79988281 -75.04907227 32.41113281 C-68.91183124 23.7858211 -63.07240951 17.62190415 -53.00610352 14.03613281 C-50.52895817 13.08108882 -48.18706962 11.94570664 -45.79907227 10.78613281 C-34.60176343 5.65984066 -22.91878286 2.82732238 -10.71313477 1.52050781 C-6.9712521 1.06873195 -3.80839993 0.03077165 0 0 Z " fill="#FCFCFC" transform="translate(110.736572265625,25.8388671875)"/>
<path d="M0 0 C1.31016083 0.00444122 2.62032166 0.00888245 3.97018433 0.01345825 C4.6922406 0.0131662 5.41429687 0.01287415 6.15823364 0.01257324 C8.54993621 0.01396895 10.94132901 0.0295412 13.33297729 0.04519653 C14.98921539 0.04892581 16.64545569 0.05177319 18.30169678 0.05377197 C22.6648872 0.06141514 27.02794486 0.08106944 31.39108276 0.10317993 C35.84174809 0.12362368 40.29243482 0.13277054 44.74313354 0.14285278 C53.47887161 0.16431474 62.2145017 0.19845885 70.95016479 0.24050903 C72.96651016 4.90108639 74.65181691 9.34673622 75.95016479 14.24050903 C72.95016479 13.24050903 72.95016479 13.24050903 71.26266479 10.42800903 C69.95016479 7.24050903 69.95016479 7.24050903 69.95016479 3.24050903 C46.19016479 3.24050903 22.43016479 3.24050903 -2.04983521 3.24050903 C-1.38983521 4.89050903 -0.72983521 6.54050903 -0.04983521 8.24050903 C0.52509264 11.35070896 0.95501981 14.46316455 1.38766479 17.59597778 C1.72960676 20.3829653 1.72960676 20.3829653 3.95016479 22.24050903 C3.95016479 23.56050903 3.95016479 24.88050903 3.95016479 26.24050903 C4.61016479 26.24050903 5.27016479 26.24050903 5.95016479 26.24050903 C6.34203979 27.10675903 6.73391479 27.97300903 7.13766479 28.86550903 C9.05269735 32.43143173 11.33278706 35.16509019 13.95016479 38.24050903 C14.98671547 39.88469286 16.0020105 41.54381188 16.95016479 43.24050903 C12.57262686 41.36442135 9.85438942 38.7852261 7.45016479 34.67800903 C6.130538 32.1532561 6.130538 32.1532561 3.88766479 30.86550903 C0.06580581 27.66007891 -0.19026128 21.96816562 -1.04983521 17.24050903 C-2.03983521 17.24050903 -3.02983521 17.24050903 -4.04983521 17.24050903 C-4.27109698 14.78270927 -4.47733916 12.32523256 -4.67483521 9.86550903 C-4.73928833 9.16683716 -4.80374146 8.46816528 -4.87014771 7.74832153 C-5.0110326 5.91681793 -5.03745179 4.07738156 -5.04983521 2.24050903 C-3.04983521 0.24050903 -3.04983521 0.24050903 0 0 Z " fill="#E3E2E3" transform="translate(26.049835205078125,172.75949096679688)"/>
<path d="M0 0 C1.14182487 -0.00043808 1.14182487 -0.00043808 2.30671692 -0.00088501 C4.82283934 0.00050835 7.33866564 0.01606972 9.85473633 0.03173828 C11.59922626 0.03546839 13.34371829 0.03831537 15.08821106 0.04031372 C19.67989892 0.04795033 24.27146027 0.06759907 28.86309814 0.08972168 C33.54844451 0.1101795 38.2338113 0.1193153 42.91918945 0.12939453 C52.11260441 0.15084493 61.30592548 0.18498123 70.49926758 0.22705078 C71.7381305 4.36797449 72.76238309 7.88564485 72.49926758 12.22705078 C73.15926758 12.22705078 73.81926758 12.22705078 74.49926758 12.22705078 C74.87051758 13.17580078 75.24176758 14.12455078 75.62426758 15.10205078 C77.22669545 18.46396803 77.22669545 18.46396803 80.56176758 19.53955078 C81.53114258 19.76642578 82.50051758 19.99330078 83.49926758 20.22705078 C84.15926758 20.55705078 84.81926758 20.88705078 85.49926758 21.22705078 C85.49926758 21.88705078 85.49926758 22.54705078 85.49926758 23.22705078 C89.64849816 24.01284871 93.55220188 24.34560061 97.77270508 24.32470703 C98.92641602 24.32148438 100.08012695 24.31826172 101.26879883 24.31494141 C103.05350586 24.30237305 103.05350586 24.30237305 104.87426758 24.28955078 C106.08727539 24.28503906 107.3002832 24.28052734 108.55004883 24.27587891 C111.53317264 24.26413432 114.51619437 24.24770918 117.49926758 24.22705078 C114.19461976 26.43014932 113.1528311 26.48331004 109.30786133 26.49267578 C107.76582031 26.49654297 107.76582031 26.49654297 106.19262695 26.50048828 C105.11819336 26.49275391 104.04375977 26.48501953 102.93676758 26.47705078 C101.8894043 26.48478516 100.84204102 26.49251953 99.76293945 26.50048828 C83.35208517 26.45969063 83.35208517 26.45969063 77.62426758 21.97705078 C76.92301758 21.06955078 76.22176758 20.16205078 75.49926758 19.22705078 C74.79801758 18.36080078 74.09676758 17.49455078 73.37426758 16.60205078 C71.49926758 13.22705078 71.49926758 13.22705078 68.49926758 2.22705078 C44.07926758 2.22705078 19.65926758 2.22705078 -5.50073242 2.22705078 C-6.2837285 6.14203118 -6.61038401 9.1259686 -6.56323242 13.03955078 C-6.55420898 14.01537109 -6.54518555 14.99119141 -6.53588867 15.99658203 C-6.52428711 16.73263672 -6.51268555 17.46869141 -6.50073242 18.22705078 C-5.51073242 18.22705078 -4.52073242 18.22705078 -3.50073242 18.22705078 C-1.76983719 21.45281007 -0.48836208 24.27829932 0.37426758 27.85205078 C1.70481315 31.84368749 3.17050528 32.79137105 6.49926758 35.22705078 C7.54017417 36.86848041 8.54431084 38.53417293 9.49926758 40.22705078 C11.25767625 42.38509778 12.2886063 43.15142879 14.93676758 44.10205078 C18.174067 45.52330418 19.38722817 47.43370833 21.49926758 50.22705078 C23.62529942 51.99028583 23.62529942 51.99028583 25.49926758 53.22705078 C23.24926758 53.47705078 23.24926758 53.47705078 20.49926758 53.22705078 C18.18676758 51.35205078 18.18676758 51.35205078 16.49926758 49.22705078 C16.49926758 48.56705078 16.49926758 47.90705078 16.49926758 47.22705078 C14.84926758 46.89705078 13.19926758 46.56705078 11.49926758 46.22705078 C11.49926758 45.56705078 11.49926758 44.90705078 11.49926758 44.22705078 C10.87922852 44.14197266 10.25918945 44.05689453 9.62036133 43.96923828 C7.49926758 43.22705078 7.49926758 43.22705078 6.40942383 41.48486328 C6.12969727 40.78103516 5.8499707 40.07720703 5.56176758 39.35205078 C3.81409644 35.47139518 2.22134733 34.32668551 -1.50073242 32.22705078 C-3.97235615 28.25479836 -4.75802882 24.78937292 -5.50073242 20.22705078 C-6.16073242 19.89705078 -6.82073242 19.56705078 -7.50073242 19.22705078 C-8.09838867 16.97705078 -8.09838867 16.97705078 -8.56323242 14.22705078 C-8.90526752 10.92645372 -8.90526752 10.92645372 -10.50073242 8.22705078 C-10.75073242 5.28955078 -10.75073242 5.28955078 -10.50073242 2.22705078 C-6.86069318 -0.19964204 -4.20348092 -0.04206309 0 0 Z " fill="#454447" transform="translate(28.500732421875,171.77294921875)"/>
<path d="M0 0 C1.32 0 2.64 0 4 0 C5.6328125 1.79296875 5.6328125 1.79296875 7.125 4.1875 C7.62257813 4.96480469 8.12015625 5.74210937 8.6328125 6.54296875 C10.88342235 10.58763616 12.21895393 14.44389793 13 19 C13.66 19 14.32 19 15 19 C15.50838564 21.03959477 16.00633886 23.08179138 16.5 25.125 C16.7784375 26.26195313 17.056875 27.39890625 17.34375 28.5703125 C17.96723691 31.82877387 18.19621693 34.69374467 18 38 C16.099996 39.900004 12.7368554 39.13780974 10.21704102 39.14526367 C9.15362488 39.15030159 9.15362488 39.15030159 8.06872559 39.15544128 C5.71376822 39.16497816 3.35888175 39.16689576 1.00390625 39.16796875 C-0.62655162 39.17117945 -2.25700919 39.17454337 -3.88746643 39.17805481 C-7.30983142 39.18405295 -10.73217113 39.18589401 -14.15454102 39.18530273 C-18.54759232 39.18520108 -22.94048213 39.19885393 -27.33349514 39.21607494 C-30.70230356 39.22717424 -34.07107269 39.22922258 -37.43989754 39.22869301 C-39.05987162 39.22987623 -40.67984661 39.23431707 -42.29980278 39.24202538 C-44.56253355 39.25178367 -46.82491046 39.24896393 -49.08764648 39.24291992 C-50.37702621 39.24434494 -51.66640594 39.24576996 -52.99485779 39.24723816 C-56 39 -56 39 -58 37 C-58.38749213 34.67504723 -58.71758117 32.3400417 -59 30 C-59.20643199 27.74671588 -59.20643199 27.74671588 -60 26 C-61.96672915 24.8499169 -61.96672915 24.8499169 -64 24 C-64.33 23.34 -64.66 22.68 -65 22 C-66.61841584 21.26928667 -68.27064574 20.6122162 -69.9375 20 C-74.78587699 18.21412301 -74.78587699 18.21412301 -77 16 C-73.4399399 16.44500751 -70.08693386 17.18548049 -66.6875 18.3125 C-65.67236328 18.64701172 -65.67236328 18.64701172 -64.63671875 18.98828125 C-63 20 -63 20 -62.26953125 22.10546875 C-62.13611328 23.04326172 -62.13611328 23.04326172 -62 24 C-61.38125 24.103125 -60.7625 24.20625 -60.125 24.3125 C-58 25 -58 25 -56 28 C-55.67 30.97 -55.34 33.94 -55 37 C-20.845 37.495 -20.845 37.495 14 38 C13.35293184 32.53178657 13.35293184 32.53178657 11 28 C10.97269592 26.43759968 10.95346774 24.8750573 10.9375 23.3125 C10.25813567 14.37534514 4.84778688 7.27168032 0 0 Z " fill="#B9B8B9" transform="translate(219,53)"/>
<path d="M0 0 C0.66 0.33 1.32 0.66 2 1 C1.52949219 1.44730469 1.05898438 1.89460938 0.57421875 2.35546875 C-2.87062003 5.70045713 -5.75488616 8.71387357 -8 13 C-8.84788035 14.58670856 -9.70259795 16.16977419 -10.5625 17.75 C-11.18318359 18.91789062 -11.18318359 18.91789062 -11.81640625 20.109375 C-13 22 -13 22 -15 23 C-15.37400786 25.32716 -15.70764733 27.66117862 -16 30 C-16.33 30.33 -16.66 30.66 -17 31 C-17.97193337 46.67003033 -17.97193337 46.67003033 -13 61 C-13 62.32 -13 63.64 -13 65 C-12.34 65 -11.68 65 -11 65 C-10.608125 65.928125 -10.21625 66.85625 -9.8125 67.8125 C-7.80826139 71.33719549 -6.4470689 72.06627842 -3 74 C-0.6875 76.6875 -0.6875 76.6875 1 79 C-4.20553678 77.70051564 -6.68316735 75.70254159 -10.1875 71.6875 C-11.02667969 70.74261719 -11.86585937 69.79773438 -12.73046875 68.82421875 C-16.57901865 64.03505941 -18.40480316 59.92501683 -20 54 C-20.33 53.67 -20.66 53.34 -21 53 C-21.08726223 51.21928754 -21.10699041 49.4351686 -21.09765625 47.65234375 C-21.09443359 46.57275391 -21.09121094 45.49316406 -21.08789062 44.38085938 C-21.07951172 43.24455078 -21.07113281 42.10824219 -21.0625 40.9375 C-21.05798828 39.79732422 -21.05347656 38.65714844 -21.04882812 37.48242188 C-21.03699747 34.65489649 -21.0205141 31.8274736 -21 29 C-20.34 28.67 -19.68 28.34 -19 28 C-18.938125 27.071875 -18.87625 26.14375 -18.8125 25.1875 C-18.12628968 19.18627887 -14.53575703 13.76074371 -11 9 C-8.47265625 7.33984375 -8.47265625 7.33984375 -6 6 C-4.20478702 4.44254463 -4.20478702 4.44254463 -2.6875 2.8125 C-1.800625 1.884375 -0.91375 0.95625 0 0 Z " fill="#8E8E8F" transform="translate(42,49)"/>
<path d="M0 0 C0.33 0 0.66 0 1 0 C0.97679688 0.71285156 0.95359375 1.42570312 0.9296875 2.16015625 C0.60412262 10.36221895 0.60412262 10.36221895 3 18 C5.90376539 19.4810796 8.8221147 20.31341984 12 21 C12 21.66 12 22.32 12 23 C12.969375 23.0825 13.93875 23.165 14.9375 23.25 C17.95183096 23.66023439 20.08393878 24.50028463 22.75 25.9375 C29.08988077 28.99660331 36.15212096 29.0374075 43.0625 29.60546875 C47 30 47 30 48 31 C50.32817964 31.36760731 52.6618385 31.70241581 55 32 C55 32.66 55 33.32 55 34 C56.27875 34.103125 57.5575 34.20625 58.875 34.3125 C63.28971801 34.79687345 67.28216008 35.88457027 71.5 37.2421875 C74.69144027 38.20959283 77.91204838 38.85850907 81.1875 39.47265625 C83 40 83 40 85 42 C84.175 41.855625 83.35 41.71125 82.5 41.5625 C79.8904794 41.14311276 77.31080971 40.7977811 74.6875 40.5 C71 40 71 40 70 39 C64.16216096 37.26222466 58.24274661 36.65818692 52.1875 36.24609375 C50 36 50 36 49 35 C47.67218122 34.79395915 46.33704105 34.6337041 45 34.5 C41.11111111 34.11111111 41.11111111 34.11111111 40 33 C38.01732624 32.76868806 36.03452131 32.53838782 34.05078125 32.31640625 C31.51116048 31.92457905 29.37176872 30.97303332 27 30 C25.39125 29.814375 25.39125 29.814375 23.75 29.625 C19.13130525 28.85521754 15.07369758 27.31658768 11 25 C10.67 24.34 10.34 23.68 10 23 C8.03700146 22.15934368 6.03929129 21.53482652 4.0078125 20.87890625 C1.72185227 19.87824273 0.50008959 18.99540219 -1 17 C-1 15.68 -1 14.36 -1 13 C-1.66 13 -2.32 13 -3 13 C-3 10.03 -3 7.06 -3 4 C-2.34 4 -1.68 4 -1 4 C-0.67 2.68 -0.34 1.36 0 0 Z " fill="#BFBEBF" transform="translate(100,77)"/>
<path d="M0 0 C-14.39826614 5.58357958 -27.75780313 8.17016097 -43.15625 8.09765625 C-44.29912476 8.0962413 -45.44199951 8.09482635 -46.61950684 8.09336853 C-50.24636525 8.08780025 -53.87316045 8.07525362 -57.5 8.0625 C-59.9687491 8.0574809 -62.43749918 8.05291871 -64.90625 8.04882812 C-70.93752133 8.03784121 -76.96875615 8.02113485 -83 8 C-83.33 7.34 -83.66 6.68 -84 6 C-83.41880402 5.99857498 -82.83760803 5.99714996 -82.23880005 5.99568176 C-61.04939899 5.92696454 -18.46143238 -5.72941005 0 0 Z " fill="#3B3A3D" transform="translate(188,234)"/>
<path d="M0 0 C6.9973282 0.81364281 11.14866347 3.97066965 16.5 8.375 C17.4178125 9.12523437 18.335625 9.87546875 19.28125 10.6484375 C23.63715984 14.41604917 27.25958048 17.89823917 30 23 C30.45761719 23.83273438 30.91523438 24.66546875 31.38671875 25.5234375 C36.32488575 36.34884865 35.48593743 47.33301618 35 59 C34.34 59 33.68 59 33 59 C33.33 53.39 33.66 47.78 34 42 C33.34 42 32.68 42 32 42 C31.87882812 41.36191406 31.75765625 40.72382813 31.6328125 40.06640625 C31.46523437 39.24011719 31.29765625 38.41382813 31.125 37.5625 C30.96257812 36.73878906 30.80015625 35.91507813 30.6328125 35.06640625 C30.42398438 34.38449219 30.21515625 33.70257813 30 33 C29.34 32.67 28.68 32.34 28 32 C27.87625 30.948125 27.7525 29.89625 27.625 28.8125 C26.92209498 24.52477936 25.72517965 22.34807785 23 19 C20.89960669 17.61131484 20.89960669 17.61131484 19 17 C19 15.68 19 14.36 19 13 C18.01 12.67 17.02 12.34 16 12 C15.34 11.01 14.68 10.02 14 9 C9.61112483 6.17470805 9.61112483 6.17470805 4.75 4.5 C2.20379591 3.77251312 1.39430956 2.16117982 0 0 Z " fill="#C6C6C6" transform="translate(205,127)"/>
<path d="M0 0 C4.16160957 0.48018572 7.28972897 1.14486448 11 3 C13.33006911 3.35543427 15.66327016 3.6913753 18 4 C18.33 4.33 18.66 4.66 19 5 C20.89342268 5.32789962 22.79520356 5.60777708 24.69921875 5.8671875 C31.83645306 6.91899045 38.79801322 8.45431312 45.8125 10.125 C46.99392578 10.40214844 48.17535156 10.67929688 49.39257812 10.96484375 C52.26278956 11.63882052 55.13186566 12.31724851 58 13 C58 13.66 58 14.32 58 15 C59.65 15 61.3 15 63 15 C63 15.66 63 16.32 63 17 C64.13888672 17.16435547 64.13888672 17.16435547 65.30078125 17.33203125 C66.29464844 17.49058594 67.28851563 17.64914063 68.3125 17.8125 C69.29863281 17.96332031 70.28476563 18.11414063 71.30078125 18.26953125 C74.12699269 19.03436705 75.1959128 19.75258762 77 22 C74.37303769 21.55120234 71.74883107 21.09145886 69.125 20.625 C68.00544922 20.43550781 68.00544922 20.43550781 66.86328125 20.2421875 C61.2265625 19.2265625 61.2265625 19.2265625 59 17 C51.61832459 14.17953895 44.07448724 12.48818081 36.265625 11.39453125 C34 11 34 11 33 10 C30.33543192 9.50634118 27.67498495 9.05420059 25 8.625 C18.75997365 7.57753689 12.92405473 6.26167816 7 4 C5.845 3.649375 4.69 3.29875 3.5 2.9375 C1 2 1 2 0 0 Z " fill="#A6A5A7" transform="translate(71,144)"/>
<path d="M0 0 C2.89517416 2.89517416 2.29122749 5.28840588 2.32226562 9.25 C2.31904297 10.19875 2.31582031 11.1475 2.3125 12.125 C2.32861328 13.05054688 2.34472656 13.97609375 2.36132812 14.9296875 C2.36557432 20.94230003 1.48389047 25.54413497 -1 31 C-1.38542969 31.9796875 -1.77085937 32.959375 -2.16796875 33.96875 C-2.67263672 35.22171875 -2.67263672 35.22171875 -3.1875 36.5 C-3.53167969 37.3559375 -3.87585938 38.211875 -4.23046875 39.09375 C-4.48441406 39.7228125 -4.73835938 40.351875 -5 41 C-5.66 41 -6.32 41 -7 41 C-7.020625 41.70125 -7.04125 42.4025 -7.0625 43.125 C-8.27146548 46.83249414 -10.20725028 48.20570767 -13.2109375 50.5703125 C-15.04219997 51.96339966 -15.04219997 51.96339966 -16.58984375 53.69921875 C-17.05519531 54.12847656 -17.52054688 54.55773437 -18 55 C-20.1875 54.6875 -20.1875 54.6875 -22 54 C-21.13375 53.34 -20.2675 52.68 -19.375 52 C-16.15259254 49.3247938 -13.80536517 46.30202541 -11.37890625 42.90625 C-10 41 -10 41 -7.8125 38.5 C-4.4861889 33.91198469 -2.87101472 28.57449419 -2 23 C-1.34 23 -0.68 23 0 23 C0 15.41 0 7.82 0 0 Z " fill="#424144" transform="translate(240,163)"/>
<path d="M0 0 C1.31016083 0.00444122 2.62032166 0.00888245 3.97018433 0.01345825 C4.6922406 0.0131662 5.41429687 0.01287415 6.15823364 0.01257324 C8.54993621 0.01396895 10.94132901 0.0295412 13.33297729 0.04519653 C14.98921539 0.04892581 16.64545569 0.05177319 18.30169678 0.05377197 C22.6648872 0.06141514 27.02794486 0.08106944 31.39108276 0.10317993 C35.84174809 0.12362368 40.29243482 0.13277054 44.74313354 0.14285278 C53.47887161 0.16431474 62.2145017 0.19845885 70.95016479 0.24050903 C72.96651016 4.90108639 74.65181691 9.34673622 75.95016479 14.24050903 C74.96016479 13.91050903 73.97016479 13.58050903 72.95016479 13.24050903 C71.85250854 10.99050903 71.85250854 10.99050903 70.88766479 8.24050903 C69.8122659 4.48089735 69.8122659 4.48089735 66.95016479 2.24050903 C64.76475669 2.14861961 62.57646511 2.12300667 60.38912964 2.12698364 C59.71584122 2.12683762 59.0425528 2.12669159 58.34886169 2.12654114 C56.11957598 2.12723877 53.89037344 2.13502414 51.66110229 2.14285278 C50.11696417 2.1447175 48.57282545 2.14614115 47.02868652 2.1471405 C42.96146007 2.15096149 38.89426925 2.16078821 34.82705688 2.17184448 C30.67799359 2.18206759 26.52892455 2.18664005 22.37985229 2.19168091 C14.23660495 2.20241085 6.0933934 2.22000427 -2.04983521 2.24050903 C-2.04983521 7.19050903 -2.04983521 12.14050903 -2.04983521 17.24050903 C-2.70983521 17.24050903 -3.36983521 17.24050903 -4.04983521 17.24050903 C-4.27109698 14.78270927 -4.47733916 12.32523256 -4.67483521 9.86550903 C-4.73928833 9.16683716 -4.80374146 8.46816528 -4.87014771 7.74832153 C-5.0110326 5.91681793 -5.03745179 4.07738156 -5.04983521 2.24050903 C-3.04983521 0.24050903 -3.04983521 0.24050903 0 0 Z " fill="#9A999B" transform="translate(26.049835205078125,172.75949096679688)"/>
<path d="M0 0 C1.53515478 0.00502957 3.07031116 0.00958988 4.60546875 0.01367188 C8.3203467 0.02455161 12.03516259 0.04173423 15.75 0.0625 C15.75 0.3925 15.75 0.7225 15.75 1.0625 C14.83299316 1.08231934 13.91598633 1.10213867 12.97119141 1.12255859 C9.52303659 1.2013114 6.07526263 1.28802123 2.62744141 1.37988281 C1.14379399 1.41783434 -0.3399349 1.45274178 -1.82373047 1.484375 C-10.16054304 1.66426576 -18.1046209 2.13052316 -26.25 4.0625 C-27.57612093 4.29927321 -28.90425936 4.52508966 -30.234375 4.73828125 C-38.37025954 6.11395467 -45.76719577 8.0743865 -53.45703125 11.07421875 C-56.25 12.0625 -56.25 12.0625 -59.25 12.0625 C-57.39042161 8.78089107 -56.36046344 8.09932115 -52.6875 6.875 C-51.553125 6.606875 -50.41875 6.33875 -49.25 6.0625 C-48.59 5.7325 -47.93 5.4025 -47.25 5.0625 C-44.9170134 5.02227609 -42.58293334 5.01929753 -40.25 5.0625 C-40.25 4.4025 -40.25 3.7425 -40.25 3.0625 C-39.31027344 2.97162109 -39.31027344 2.97162109 -38.3515625 2.87890625 C-37.53429687 2.79511719 -36.71703125 2.71132813 -35.875 2.625 C-35.06289062 2.54378906 -34.25078125 2.46257813 -33.4140625 2.37890625 C-31.20727195 2.17159886 -31.20727195 2.17159886 -29.25 1.0625 C-19.57252811 -0.31100092 -9.74808252 -0.05616964 0 0 Z " fill="#414043" transform="translate(122.25,24.9375)"/>
<path d="M0 0 C1.27617188 0.44859375 1.27617188 0.44859375 2.578125 0.90625 C7.04950624 2.33545861 11.58156744 3.25457581 16.171875 4.21875 C19 5 19 5 21 7 C22.98356483 7.71408334 24.98315437 8.38617742 27 9 C27 9.66 27 10.32 27 11 C38.385 11.99 38.385 11.99 50 13 C50 13.66 50 14.32 50 15 C43.4 14.67 36.8 14.34 30 14 C30 13.34 30 12.68 30 12 C28.02 12 26.04 12 24 12 C23.67 11.01 23.34 10.02 23 9 C22.195625 9.020625 21.39125 9.04125 20.5625 9.0625 C18 9 18 9 17 8 C15.55043603 7.63039006 14.08985345 7.30340007 12.625 7 C9.99239863 6.45118408 7.55817615 5.85272538 5 5 C5 4.34 5 3.68 5 3 C3.68 3 2.36 3 1 3 C0.67 2.01 0.34 1.02 0 0 Z " fill="#464548" transform="translate(54,225)"/>
<path d="M0 0 C0 0.33 0 0.66 0 1 C-6.75 1.125 -6.75 1.125 -9 0 C-13.1817803 -0.27269786 -17.37284899 -0.23173449 -21.5625 -0.25 C-22.71814453 -0.270625 -23.87378906 -0.29125 -25.06445312 -0.3125 C-32.05948757 -0.34427756 -37.50707709 0.36679754 -44 3 C-36.02793309 -8.95810037 -10.9630019 -5.51845489 0 0 Z " fill="#454548" transform="translate(149,72)"/>
<path d="M0 0 C0.33 0 0.66 0 1 0 C1.33 7.59 1.66 15.18 2 23 C2.66 23.33 3.32 23.66 4 24 C5.0703125 25.70703125 5.0703125 25.70703125 6.125 27.8125 C6.47820313 28.49957031 6.83140625 29.18664062 7.1953125 29.89453125 C8 32 8 32 8 36 C8.66 36 9.32 36 10 36 C10.391875 36.928125 10.78375 37.85625 11.1875 38.8125 C13.19173861 42.33719549 14.5529311 43.06627842 18 45 C20.3125 47.6875 20.3125 47.6875 22 50 C16.79446322 48.70051564 14.31683265 46.70254159 10.8125 42.6875 C9.97332031 41.74261719 9.13414063 40.79773438 8.26953125 39.82421875 C4.42098135 35.03505941 2.59519684 30.92501683 1 25 C0.67 24.67 0.34 24.34 0 24 C-0.08726223 22.21928754 -0.10699041 20.4351686 -0.09765625 18.65234375 C-0.09443359 17.57275391 -0.09121094 16.49316406 -0.08789062 15.38085938 C-0.07951172 14.24455078 -0.07113281 13.10824219 -0.0625 11.9375 C-0.05798828 10.79732422 -0.05347656 9.65714844 -0.04882812 8.48242188 C-0.03699747 5.65489649 -0.0205141 2.8274736 0 0 Z " fill="#4B4A4D" transform="translate(21,78)"/>
<path d="M0 0 C1.2375 -0.020625 2.475 -0.04125 3.75 -0.0625 C4.44609375 -0.07410156 5.1421875 -0.08570313 5.859375 -0.09765625 C8 0 8 0 9.81640625 0.47265625 C14.1055022 1.50848443 18.58756834 1.46540044 22.98046875 1.71875 C26 2 26 2 27 3 C28.47250645 3.12232644 29.95065711 3.1777456 31.42797852 3.20532227 C32.83932823 3.2352401 32.83932823 3.2352401 34.27919006 3.26576233 C35.30209641 3.28247482 36.32500275 3.29918732 37.37890625 3.31640625 C38.42070541 3.33718735 39.46250458 3.35796844 40.53587341 3.37937927 C43.87801247 3.44499057 47.22023285 3.50381331 50.5625 3.5625 C52.82227418 3.60567422 55.08204001 3.64928814 57.34179688 3.69335938 C62.89444421 3.80068367 68.44717321 3.90242812 74 4 C74 4.33 74 4.66 74 5 C57.17 5 40.34 5 23 5 C23 4.34 23 3.68 23 3 C22.01 3.02320313 21.02 3.04640625 20 3.0703125 C13.06140739 3.18269259 6.66829915 3.1774038 0 1 C0 0.67 0 0.34 0 0 Z " fill="#BAB9BA" transform="translate(81,235)"/>
<path d="M0 0 C1.81242052 -0.02687279 3.62495233 -0.04633715 5.4375 -0.0625 C6.44683594 -0.07410156 7.45617187 -0.08570312 8.49609375 -0.09765625 C11 0 11 0 12 1 C13.37149254 1.15892832 14.74781491 1.2769631 16.125 1.375 C20.55143079 1.81554524 23.93721177 3.15327808 28 5 C30.65187751 5.76838854 33.30629871 6.38564707 36 7 C36 7.66 36 8.32 36 9 C36.763125 9.12375 37.52625 9.2475 38.3125 9.375 C41 10 41 10 44 12 C44 12.66 44 13.32 44 14 C38.39287298 12.17768372 32.79193202 10.31460603 27.453125 7.80078125 C18.54184933 3.70208678 9.6356322 2.31686973 0 1 C0 0.67 0 0.34 0 0 Z " fill="#353438" transform="translate(157,26)"/>
<path d="M0 0 C1.32 0 2.64 0 4 0 C5.6328125 1.79296875 5.6328125 1.79296875 7.125 4.1875 C7.62257812 4.96480469 8.12015625 5.74210937 8.6328125 6.54296875 C10.88342235 10.58763616 12.21895393 14.44389793 13 19 C13.66 19 14.32 19 15 19 C15.50838564 21.03959477 16.00633886 23.08179138 16.5 25.125 C16.7784375 26.26195313 17.056875 27.39890625 17.34375 28.5703125 C17.96453765 31.81466698 18.12006768 34.70814457 18 38 C17.01 38 16.02 38 15 38 C14.96132812 36.76636719 14.96132812 36.76636719 14.921875 35.5078125 C14.54638289 28.11744516 13.69626708 21.52774715 10 15 C9.34 14.67 8.68 14.34 8 14 C6.94517743 12.24005148 5.95367383 10.44174865 5 8.625 C3.42464946 5.63971073 1.87398299 2.81097449 0 0 Z " fill="#6E6E70" transform="translate(219,53)"/>
<path d="M0 0 C2.32724184 3.49086277 3.13427859 6.70893324 4.21875 10.72265625 C4.86922513 13.16215534 4.86922513 13.16215534 7 15 C7 16.32 7 17.64 7 19 C7.66 19 8.32 19 9 19 C9.391875 19.86625 9.78375 20.7325 10.1875 21.625 C12.10253256 25.19092269 14.38262226 27.92458116 17 31 C18.03655068 32.64418383 19.05184571 34.30330285 20 36 C15.62246207 34.12391231 12.90422463 31.54471707 10.5 27.4375 C9.18037321 24.91274706 9.18037321 24.91274706 6.9375 23.625 C4.06646694 21.21703678 3.88368119 18.59363683 3 15 C2.47140911 13.66142904 1.92943836 12.32807329 1.375 11 C-0.11814953 7.15832885 -0.25595422 4.09526759 0 0 Z " fill="#B8B7B9" transform="translate(23,180)"/>
<path d="M0 0 C0.33 0 0.66 0 1 0 C0.97679688 0.71285156 0.95359375 1.42570312 0.9296875 2.16015625 C0.60412262 10.36221895 0.60412262 10.36221895 3 18 C5.90376539 19.4810796 8.8221147 20.31341984 12 21 C12 21.66 12 22.32 12 23 C13.093125 23.12375 14.18625 23.2475 15.3125 23.375 C19 24 19 24 22 26 C17.46970477 26.24686439 14.51472715 25.65361665 10.4375 23.6875 C9.52871094 23.25824219 8.61992188 22.82898438 7.68359375 22.38671875 C5.03251213 21.0168003 2.4707093 19.67624094 0 18 C-0.8125 15.3125 -0.8125 15.3125 -1 13 C-1.66 13 -2.32 13 -3 13 C-3 10.03 -3 7.06 -3 4 C-2.34 4 -1.68 4 -1 4 C-0.67 2.68 -0.34 1.36 0 0 Z " fill="#6C6B6E" transform="translate(100,77)"/>
<path d="M0 0 C0.66 0 1.32 0 2 0 C1.70887831 6.41923331 0.54784971 10.62100206 -3 16 C-3.66 16 -4.32 16 -5 16 C-5.226875 16.70125 -5.45375 17.4025 -5.6875 18.125 C-7.33841288 21.74128535 -9.2908835 24.08769976 -12 27 C-12.66 27 -13.32 27 -14 27 C-14.33 27.99 -14.66 28.98 -15 30 C-16.66666667 30.66666667 -18.33333333 31.33333333 -20 32 C-20.33 32.99 -20.66 33.98 -21 35 C-23.0625 35.6875 -23.0625 35.6875 -25 36 C-24.67 35.01 -24.34 34.02 -24 33 C-23.01 33 -22.02 33 -21 33 C-21 32.34 -21 31.68 -21 31 C-20.319375 30.62875 -19.63875 30.2575 -18.9375 29.875 C-12.78848503 25.95009683 -9.15257126 20.46277108 -6 14 C-5.01 13.67 -4.02 13.34 -3 13 C-3 11.35 -3 9.7 -3 8 C-2.01 7.67 -1.02 7.34 0 7 C0 4.69 0 2.38 0 0 Z " fill="#B9B8B9" transform="translate(236,186)"/>
<path d="M0 0 C1.44096586 0.42594588 2.87768712 0.86626633 4.3125 1.3125 C5.11300781 1.55613281 5.91351563 1.79976562 6.73828125 2.05078125 C9.12543683 3.05264447 10.35471346 4.02565616 12 6 C13.97917232 10.85796842 13.58033251 16.35572457 11.875 21.1875 C9.57836531 24.63245204 7.35238601 26.5748697 4 29 C3.34 29 2.68 29 2 29 C2 28.34 2 27.68 2 27 C2.61875 26.7525 3.2375 26.505 3.875 26.25 C6.35068687 24.79371361 6.95125002 23.62187494 8 21 C8.66 21 9.32 21 10 21 C10.77825878 12.95619045 10.77825878 12.95619045 7.75 5.8125 C5.29575189 4.19492739 3.79014245 3.59788767 1 3 C0.67 2.01 0.34 1.02 0 0 Z " fill="#6F6F71" transform="translate(148,166)"/>
<path d="M0 0 C6.15234375 -0.09765625 6.15234375 -0.09765625 8 0 C8.33 0.33 8.66 0.66 9 1 C11.32817964 1.36760731 13.6618385 1.70241581 16 2 C16 2.66 16 3.32 16 4 C17.918125 4.1546875 17.918125 4.1546875 19.875 4.3125 C24.28971801 4.79687345 28.28216008 5.88457027 32.5 7.2421875 C35.69144027 8.20959283 38.91204838 8.85850907 42.1875 9.47265625 C44 10 44 10 46 12 C45.175 11.855625 44.35 11.71125 43.5 11.5625 C40.8904794 11.14311276 38.31080971 10.7977811 35.6875 10.5 C32 10 32 10 31 9 C27.64114115 8.34250526 24.27837127 7.75405287 20.90234375 7.19335938 C17.34775342 6.56855434 15.04298934 6.02865956 12 4 C9.95294775 3.40260055 7.88766892 2.86590017 5.8125 2.375 C4.72582031 2.11460938 3.63914063 1.85421875 2.51953125 1.5859375 C1.68808594 1.39257812 0.85664063 1.19921875 0 1 C0 0.67 0 0.34 0 0 Z " fill="#7F7F81" transform="translate(139,107)"/>
<path d="M0 0 C6.9973282 0.81364281 11.14866347 3.97066965 16.5 8.375 C17.4178125 9.12523437 18.335625 9.87546875 19.28125 10.6484375 C27.63355408 17.87270052 27.63355408 17.87270052 30 23 C29.5703125 25.15234375 29.5703125 25.15234375 29 27 C28.68546875 26.39671875 28.3709375 25.7934375 28.046875 25.171875 C24.25327093 17.8725444 24.25327093 17.8725444 17.875 12.9375 C16 12 16 12 14 9 C9.61112483 6.17470805 9.61112483 6.17470805 4.75 4.5 C2.20379591 3.77251312 1.39430956 2.16117982 0 0 Z " fill="#656467" transform="translate(205,127)"/>
<path d="M0 0 C0.53625 0.45375 1.0725 0.9075 1.625 1.375 C4.32401284 3.221693 6.88374124 4.05157342 10 5 C10.66 5.33 11.32 5.66 12 6 C12 6.66 12 7.32 12 8 C16.14923058 8.78579793 20.05293431 9.11854983 24.2734375 9.09765625 C25.42714844 9.09443359 26.58085937 9.09121094 27.76953125 9.08789062 C29.55423828 9.07532227 29.55423828 9.07532227 31.375 9.0625 C32.58800781 9.05798828 33.80101562 9.05347656 35.05078125 9.04882812 C38.03390507 9.03708354 41.01692679 9.0206584 44 9 C40.69535219 11.20309854 39.65356352 11.25625926 35.80859375 11.265625 C34.26655273 11.26949219 34.26655273 11.26949219 32.69335938 11.2734375 C31.61892578 11.26570312 30.54449219 11.25796875 29.4375 11.25 C28.39013672 11.25773438 27.34277344 11.26546875 26.26367188 11.2734375 C9.82007383 11.23255845 9.82007383 11.23255845 4 6.625 C2.33967048 4.44581751 1.02998388 2.52814225 0 0 Z " fill="#6F6F71" transform="translate(102,187)"/>
<path d="M0 0 C0 0.33 0 0.66 0 1 C-1.07121094 1.20496094 -2.14242187 1.40992187 -3.24609375 1.62109375 C-4.64326851 1.89302709 -6.04040181 2.16517352 -7.4375 2.4375 C-8.14455078 2.57220703 -8.85160156 2.70691406 -9.58007812 2.84570312 C-13.08429264 3.28406898 -13.08429264 3.28406898 -16 5 C-17.66617115 5.04063832 -19.33388095 5.042721 -21 5 C-21.33 5.99 -21.66 6.98 -22 8 C-24.31 8 -26.62 8 -29 8 C-29 8.66 -29 9.32 -29 10 C-35.4 13.07692308 -35.4 13.07692308 -38.4375 12.6875 C-38.953125 12.460625 -39.46875 12.23375 -40 12 C-35.99536264 9.40239739 -31.83657183 7.63810087 -27.375 6 C-26.66859375 5.73944824 -25.9621875 5.47889648 -25.234375 5.21044922 C-16.81450736 2.15059277 -9.04904994 -0.51221037 0 0 Z " fill="#A1A1A2" transform="translate(96,29)"/>
<path d="M0 0 C1.04414063 -0.00773437 2.08828125 -0.01546875 3.1640625 -0.0234375 C4.15921875 -0.02085938 5.154375 -0.01828125 6.1796875 -0.015625 C7.53296143 -0.01224121 7.53296143 -0.01224121 8.91357422 -0.00878906 C11.125 0.25 11.125 0.25 13.125 2.25 C12.17415527 2.2185791 12.17415527 2.2185791 11.20410156 2.18652344 C-7.67697604 0.82628455 -7.67697604 0.82628455 -24.17578125 8.390625 C-24.73652344 9.00421875 -25.29726562 9.6178125 -25.875 10.25 C-26.535 9.92 -27.195 9.59 -27.875 9.25 C-26.6875 6.75 -26.6875 6.75 -24.875 4.25 C-22.1875 3.9375 -22.1875 3.9375 -19.875 4.25 C-19.875 3.59 -19.875 2.93 -19.875 2.25 C-13.16541142 0.2226423 -6.98468995 -0.05291432 0 0 Z " fill="#AFAFB0" transform="translate(128.875,66.75)"/>
<path d="M0 0 C3.40849949 2.23315484 4.98581987 4.49707804 7 8 C8.75840867 10.158047 9.78933873 10.924378 12.4375 11.875 C15.67479942 13.2962534 16.88796059 15.20665755 19 18 C21.12603185 19.76323505 21.12603185 19.76323505 23 21 C20.75 21.25 20.75 21.25 18 21 C15.6875 19.125 15.6875 19.125 14 17 C14 16.34 14 15.68 14 15 C12.35 14.67 10.7 14.34 9 14 C9 13.34 9 12.68 9 12 C8.39671875 11.92652344 7.7934375 11.85304687 7.171875 11.77734375 C4.20900698 10.71689279 3.67794815 9.31702961 2.25 6.5625 C1.82203125 5.75941406 1.3940625 4.95632812 0.953125 4.12890625 C0 2 0 2 0 0 Z " fill="#535255" transform="translate(31,204)"/>
<path d="M0 0 C-1.77065111 0.64633275 -3.54152753 1.2920483 -5.3125 1.9375 C-6.29863281 2.29714844 -7.28476563 2.65679687 -8.30078125 3.02734375 C-11.81487984 4.29363977 -14.72804997 5.14158624 -18.44921875 5.31640625 C-19.72055664 5.37924805 -19.72055664 5.37924805 -21.01757812 5.44335938 C-22.33918945 5.50233398 -22.33918945 5.50233398 -23.6875 5.5625 C-24.58017578 5.60568359 -25.47285156 5.64886719 -26.39257812 5.69335938 C-28.59490108 5.79935353 -30.79733473 5.90142051 -33 6 C-27.88005556 3.1409585 -22.19429652 2.44170795 -16.5 1.3125 C-15.35917969 1.07466797 -14.21835938 0.83683594 -13.04296875 0.59179688 C-11.94597656 0.37201172 -10.84898437 0.15222656 -9.71875 -0.07421875 C-8.71779297 -0.27619873 -7.71683594 -0.47817871 -6.68554688 -0.6862793 C-4.08666326 -0.98987616 -2.45344061 -0.83325086 0 0 Z " fill="#605F62" transform="translate(188,234)"/>
<path d="M0 0 C9.24 0 18.48 0 28 0 C30.10204056 4.9047613 31.6671891 8.97632813 33 14 C32.01 13.67 31.02 13.34 30 13 C28.90234375 10.75 28.90234375 10.75 27.9375 8 C26.8621011 4.24038831 26.8621011 4.24038831 24 2 C22.18828902 1.84693099 20.3716206 1.75053339 18.5546875 1.68359375 C17.47832031 1.64169922 16.40195313 1.59980469 15.29296875 1.55664062 C13.60107422 1.49766602 13.60107422 1.49766602 11.875 1.4375 C10.73933594 1.39431641 9.60367188 1.35113281 8.43359375 1.30664062 C5.62252232 1.2003396 2.81136055 1.09830595 0 1 C0 0.67 0 0.34 0 0 Z " fill="#9C9C9D" transform="translate(69,173)"/>
<path d="M0 0 C27.06821107 5.06821107 27.06821107 5.06821107 33 11 C28.49589123 11.39742136 25.93963008 10.09041596 22 8 C17.69016031 6.3494231 13.57899207 5.54947905 9 5 C9 4.34 9 3.68 9 3 C7.88625 3.061875 6.7725 3.12375 5.625 3.1875 C4.42875 3.125625 3.2325 3.06375 2 3 C1.34 2.01 0.68 1.02 0 0 Z " fill="#C5C4C5" transform="translate(168,115)"/>
<path d="M0 0 C4.2953863 2.86359087 4.89324061 6.07801413 6 11 C6.50947712 15.32812946 6.80489387 19.64711498 7 24 C6.34 24 5.68 24 5 24 C4.80083984 23.04287109 4.80083984 23.04287109 4.59765625 22.06640625 C4.42105469 21.24011719 4.24445313 20.41382812 4.0625 19.5625 C3.88847656 18.73878906 3.71445313 17.91507813 3.53515625 17.06640625 C3.19247006 15.02338796 3.19247006 15.02338796 2 14 C1.79043117 12.21284356 1.63188384 10.41956231 1.5 8.625 C1.26763656 5.47979491 1.00124031 3.00372093 0 0 Z " fill="#C8C8C9" transform="translate(228,67)"/>
<path d="M0 0 C0.66 0 1.32 0 2 0 C1.875 1.8125 1.875 1.8125 1 4 C-1.8125 5.5625 -1.8125 5.5625 -5 7 C-5.639375 7.515625 -6.27875 8.03125 -6.9375 8.5625 C-10.41029133 10.98293032 -14.21660289 12.27436879 -18.4375 11.625 C-18.953125 11.41875 -19.46875 11.2125 -20 11 C-19.01 11 -18.02 11 -17 11 C-17 10.34 -17 9.68 -17 9 C-11.72905922 6.2707777 -6.63755481 3.87918494 -1 2 C-0.67 1.34 -0.34 0.68 0 0 Z " fill="#4E4D50" transform="translate(216,218)"/>
<path d="M0 0 C3.18011868 2.60191529 4.01080461 5.04321845 5 9 C5.23779846 12.96208818 5.18851653 16.90766 5.125 20.875 C5.11597656 21.94492188 5.10695312 23.01484375 5.09765625 24.1171875 C5.07419342 26.74502439 5.04136459 29.37239406 5 32 C4.34 32 3.68 32 3 32 C3.03480469 30.33324219 3.03480469 30.33324219 3.0703125 28.6328125 C3.1885482 20.4827984 3.0452624 12.94218682 1 5 C0.65898147 3.33488882 0.3237914 1.66854668 0 0 Z " fill="#9C9B9D" transform="translate(235,154)"/>
<path d="M0 0 C4.16160957 0.48018572 7.28972897 1.14486448 11 3 C12.051875 3.12375 13.10375 3.2475 14.1875 3.375 C18.89744909 4.1471228 22.73621569 5.92128429 27 8 C22.52115686 10.23942157 15.83645927 7.00287461 11.3125 5.5 C10.57644531 5.24347656 9.84039062 4.98695313 9.08203125 4.72265625 C7.23652613 4.08209631 5.36927697 3.50495908 3.5 2.9375 C1 2 1 2 0 0 Z " fill="#555557" transform="translate(71,144)"/>
<path d="M0 0 C0.99 0.495 0.99 0.495 2 1 C2 2.32 2 3.64 2 5 C2.66 5 3.32 5 4 5 C4.391875 5.928125 4.78375 6.85625 5.1875 7.8125 C7.19173861 11.33719549 8.5529311 12.06627842 12 14 C14.3125 16.6875 14.3125 16.6875 16 19 C8.90204239 17.14076653 5.16099796 12.86560847 1 7 C0.06334355 4.39664605 -0.06074027 2.79405254 0 0 Z " fill="#7D7D7F" transform="translate(27,109)"/>
<path d="M0 0 C1.03833984 0.30744141 1.03833984 0.30744141 2.09765625 0.62109375 C10.46115623 2.9240865 18.36923242 3.65807068 27 4 C27 4.66 27 5.32 27 6 C20.4 5.67 13.8 5.34 7 5 C7 4.34 7 3.68 7 3 C5.02 3 3.04 3 1 3 C0.67 2.01 0.34 1.02 0 0 Z " fill="#4D4C4F" transform="translate(77,234)"/>
<path d="M0 0 C2.97 0.33 5.94 0.66 9 1 C9 1.66 9 2.32 9 3 C10.13888672 3.16435547 10.13888672 3.16435547 11.30078125 3.33203125 C12.29464844 3.49058594 13.28851563 3.64914063 14.3125 3.8125 C15.79169922 4.03873047 15.79169922 4.03873047 17.30078125 4.26953125 C20.12699269 5.03436705 21.1959128 5.75258762 23 8 C20.37303769 7.55120234 17.74883107 7.09145886 15.125 6.625 C14.37863281 6.49867188 13.63226563 6.37234375 12.86328125 6.2421875 C7.2265625 5.2265625 7.2265625 5.2265625 5 3 C3.35008418 2.29289322 1.68437744 1.62056011 0 1 C0 0.67 0 0.34 0 0 Z " fill="#656467" transform="translate(125,158)"/>
<path d="M0 0 C7.14463669 1.24254551 11.61121108 5.33766753 17 10 C16.67 10.66 16.34 11.32 16 12 C15.01 11.67 14.02 11.34 13 11 C13 10.34 13 9.68 13 9 C12.071875 8.7834375 12.071875 8.7834375 11.125 8.5625 C9 8 9 8 7 7 C7 6.34 7 5.68 7 5 C6.01 5 5.02 5 4 5 C4 4.34 4 3.68 4 3 C2.68 3 1.36 3 0 3 C0 2.01 0 1.02 0 0 Z " fill="#B1B1B2" transform="translate(202,41)"/>
<path d="M0 0 C0.33 0 0.66 0 1 0 C1 5.28 1 10.56 1 16 C0.67 15.01 0.34 14.02 0 13 C-0.99 13 -1.98 13 -3 13 C-3 10.03 -3 7.06 -3 4 C-2.34 4 -1.68 4 -1 4 C-0.67 2.68 -0.34 1.36 0 0 Z " fill="#666467" transform="translate(100,77)"/>
<path d="M0 0 C6.55925943 0.38979206 11.94526627 1.42113193 18 4 C18 4.66 18 5.32 18 6 C3.26213592 3.26213592 3.26213592 3.26213592 0 0 Z " fill="#A7A7A8" transform="translate(60,139)"/>
<path d="M0 0 C0.66 0 1.32 0 2 0 C1.67 1.65 1.34 3.3 1 5 C0.34 5 -0.32 5 -1 5 C-1.33 6.65 -1.66 8.3 -2 10 C-2.99 10.33 -3.98 10.66 -5 11 C-4.54961229 6.15833214 -3.40027839 3.50331713 0 0 Z " fill="#363538" transform="translate(234,199)"/>
<path d="M0 0 C2.32724184 3.49086277 3.13427859 6.70893324 4.21875 10.72265625 C4.86922513 13.16215534 4.86922513 13.16215534 7 15 C6.625 17.125 6.625 17.125 6 19 C6 18.01 6 17.02 6 16 C5.01 15.67 4.02 15.34 3 15 C0.54209963 9.72006588 -0.36134972 5.78159553 0 0 Z " fill="#D1D1D2" transform="translate(23,180)"/>
<path d="M0 0 C0.66 0 1.32 0 2 0 C1.70887831 6.41923331 0.54784971 10.62100206 -3 16 C-4.60031344 12.79937313 -3.03173691 10.27728194 -2 7 C-1.34 7 -0.68 7 0 7 C0 4.69 0 2.38 0 0 Z " fill="#ACACAD" transform="translate(236,186)"/>
<path d="M0 0 C3.40151009 1.40752142 5.05088182 2.8814109 7 6 C7.51171875 8.578125 7.51171875 8.578125 7.6875 11.25 C7.75324219 12.14203125 7.81898438 13.0340625 7.88671875 13.953125 C7.92410156 14.62859375 7.96148437 15.3040625 8 16 C5.62096609 13.62096609 5.07814125 11.73375141 4 8.5625 C2.88630245 5.29536384 1.92816995 2.89225493 0 0 Z " fill="#2C2B2F" transform="translate(232,147)"/>
<path d="M0 0 C-1 1 -1 1 -4.5625 1.0625 C-5.696875 1.041875 -6.83125 1.02125 -8 1 C-8 1.66 -8 2.32 -8 3 C-14.4 6.07692308 -14.4 6.07692308 -17.4375 5.6875 C-17.953125 5.460625 -18.46875 5.23375 -19 5 C-13.8476074 1.76135322 -6.08715567 -3.04357784 0 0 Z " fill="#C6C6C7" transform="translate(75,36)"/>
<path d="M0 0 C6.10995753 0.74815807 11.81317416 1.5421161 17 5 C17 5.66 17 6.32 17 7 C13.5833917 5.8896023 10.18803251 4.72916803 6.8125 3.5 C6.15894531 3.2628125 5.50539062 3.025625 4.83203125 2.78125 C3 2 3 2 0 0 Z " fill="#686769" transform="translate(184,33)"/>
<path d="M0 0 C1.32 0.33 2.64 0.66 4 1 C3.01 1 2.02 1 1 1 C1 1.66 1 2.32 1 3 C-0.78810766 3.69670416 -2.58062052 4.38211189 -4.375 5.0625 C-5.37273437 5.44535156 -6.37046875 5.82820312 -7.3984375 6.22265625 C-10 7 -10 7 -12 6 C-9.07034088 3.07034088 -6.319947 2.05866431 -2.1875 1.875 C-1.465625 1.91625 -0.74375 1.9575 0 2 C0 1.34 0 0.68 0 0 Z " fill="#C1C1C2" transform="translate(198,226)"/>
<path d="M0 0 C6.75 0.75 6.75 0.75 9 3 C10.98356483 3.71408334 12.98315437 4.38617742 15 5 C11.81011624 6.59494188 9.42171253 5.74137105 6 5 C2.5625 3 2.5625 3 0 1 C0 0.67 0 0.34 0 0 Z " fill="#9E9EA0" transform="translate(66,229)"/>
<path d="M0 0 C0.556875 0.226875 1.11375 0.45375 1.6875 0.6875 C0.264375 1.615625 0.264375 1.615625 -1.1875 2.5625 C-4.25695109 4.50720969 -4.25695109 4.50720969 -6.3125 6.6875 C-8.4375 6.3125 -8.4375 6.3125 -10.3125 5.6875 C-7.50687824 2.58654963 -4.3951302 -0.59393651 0 0 Z " fill="#9E9EA0" transform="translate(54.3125,42.3125)"/>
<path d="M0 0 C0.99 0.33 1.98 0.66 3 1 C3.9140625 3.43359375 3.9140625 3.43359375 4.625 6.4375 C5.52145036 10.3254339 5.52145036 10.3254339 7 14 C4 13 4 13 2.875 11.375 C1.74029715 8.29509227 1.42090634 5.24699176 1 2 C0.67 1.34 0.34 0.68 0 0 Z " fill="#7C7C7E" transform="translate(95,173)"/>
<path d="M0 0 C3.10011632 2.53645881 4.0575938 5.15184135 5 9 C4.625 11.375 4.625 11.375 4 13 C4 12.34 4 11.68 4 11 C3.34 11 2.68 11 2 11 C0.80712589 7.12315913 0 4.08378077 0 0 Z " fill="#7B7B7D" transform="translate(235,154)"/>
<path d="M0 0 C9.80843419 0.61970499 9.80843419 0.61970499 14 4 C14 4.66 14 5.32 14 6 C9.1008651 4.70022952 4.62440425 3.07626313 0 1 C0 0.67 0 0.34 0 0 Z " fill="#3C3B3E" transform="translate(187,119)"/>
<path d="M0 0 C1.20453448 2.2784568 1.99986522 3.99921055 2.4375 6.5625 C3.06695713 9.29014756 3.87602007 10.24540789 6 12 C5.01 12.33 4.02 12.66 3 13 C0.41073669 10.41073669 0.62601957 8.97294721 0.375 5.375 C0.30023438 4.37210937 0.22546875 3.36921875 0.1484375 2.3359375 C0.09945312 1.56507812 0.05046875 0.79421875 0 0 Z " fill="#2A2A2D" transform="translate(100,83)"/>
<path d="M0 0 C2.00841268 0.01421885 4.01537247 0.13420475 6.01953125 0.265625 C3.08579394 2.22144988 0.23736827 3.82786804 -2.98046875 5.265625 C-3.64046875 4.935625 -4.30046875 4.605625 -4.98046875 4.265625 C-3.72152968 1.74774686 -2.88459378 0.38688832 0 0 Z " fill="#464548" transform="translate(67.98046875,32.734375)"/>
<path d="M0 0 C6.15234375 -0.09765625 6.15234375 -0.09765625 8 0 C8.33 0.33 8.66 0.66 9 1 C11.32817964 1.36760731 13.6618385 1.70241581 16 2 C16 2.33 16 2.66 16 3 C10.22192976 3.2358396 5.48675196 2.86783046 0 1 C0 0.67 0 0.34 0 0 Z " fill="#504F52" transform="translate(139,107)"/>
<path d="M0 0 C1.77174819 0.08723378 3.54247377 0.19541655 5.3125 0.3125 C6.29863281 0.37050781 7.28476563 0.42851563 8.30078125 0.48828125 C11.24384457 1.04622813 12.18182999 1.68540132 14 4 C13.01 3.7834375 13.01 3.7834375 12 3.5625 C9.5630717 3.10557594 7.21136074 2.81040684 4.75 2.5625 C2.89375 2.2840625 2.89375 2.2840625 1 2 C0.67 1.34 0.34 0.68 0 0 Z " fill="#D8D8D9" transform="translate(140,109)"/>
<path d="M0 0 C0.66 0.33 1.32 0.66 2 1 C2 3.97 2 6.94 2 10 C-1 7 -1 7 -1.25 3.875 C-1 1 -1 1 0 0 Z " fill="#2F2E32" transform="translate(19,173)"/>
<path d="M0 0 C3.375 0.3125 3.375 0.3125 7 1 C7.66 1.99 8.32 2.98 9 4 C5.625 3.6875 5.625 3.6875 2 3 C1.34 2.01 0.68 1.02 0 0 Z " fill="#414143" transform="translate(71,144)"/>
<path d="M0 0 C2.64 0.66 5.28 1.32 8 2 C8 2.66 8 3.32 8 4 C8.99 4.33 9.98 4.66 11 5 C9.68 5 8.36 5 7 5 C7 4.34 7 3.68 7 3 C5.02 3 3.04 3 1 3 C0.67 2.01 0.34 1.02 0 0 Z " fill="#302F33" transform="translate(77,234)"/>
<path d="M0 0 C1.258125 0.12375 2.51625 0.2475 3.8125 0.375 C4.87404297 0.47941406 4.87404297 0.47941406 5.95703125 0.5859375 C8 1 8 1 11 3 C3.49230769 3.36923077 3.49230769 3.36923077 1 1.5 C0.67 1.005 0.34 0.51 0 0 Z " fill="#A8A8A9" transform="translate(95,150)"/>
<path d="M0 0 C1.43655854 -0.08131463 2.8744483 -0.13933559 4.3125 -0.1875 C5.51326172 -0.23970703 5.51326172 -0.23970703 6.73828125 -0.29296875 C9.47851584 0.06198392 10.29171079 0.89366282 12 3 C7.97007218 2.44687265 3.97977076 1.8441938 0 1 C0 0.67 0 0.34 0 0 Z " fill="#212024" transform="translate(159,111)"/>
<path d="M0 0 C-3.68734758 2.45823172 -6.69699971 3.01242616 -11 4 C-8.14317358 -0.28523962 -4.97227354 -1.84158279 0 0 Z " fill="#3D3C3F" transform="translate(116,71)"/>
<path d="M0 0 C3.12290635 0.48578543 5.99580359 0.9986012 9 2 C9.33 2.99 9.66 3.98 10 5 C2.42857143 3.14285714 2.42857143 3.14285714 0 0 Z " fill="#99999A" transform="translate(142,69)"/>
<path d="M0 0 C0.625 1.8125 0.625 1.8125 1 4 C0.01 5.485 0.01 5.485 -1 7 C-1.66 7 -2.32 7 -3 7 C-2.25 2.25 -2.25 2.25 0 0 Z " fill="#464548" transform="translate(228,207)"/>
<path d="M0 0 C3.91211733 1.15585285 6.8745041 2.35534962 10 5 C7.8125 5.3125 7.8125 5.3125 5 5 C2.1875 2.5 2.1875 2.5 0 0 Z " fill="#A7A6A8" transform="translate(191,121)"/>
<path d="M0 0 C3.85645121 -0.22036864 6.49223216 0.39644899 10 2 C10 2.33 10 2.66 10 3 C3.47692308 3.36923077 3.47692308 3.36923077 1.0625 1.5 C0.5365625 0.7575 0.5365625 0.7575 0 0 Z " fill="#2B2A2E" transform="translate(139,70)"/>
<path d="M0 0 C0 0.66 0 1.32 0 2 C-2.64 2.33 -5.28 2.66 -8 3 C-5.53387212 -0.1151089 -3.89156016 -0.31553191 0 0 Z " fill="#262528" transform="translate(80,30)"/>
</svg>
